<?xml version="1.0" encoding="utf-8"?>
<!-- Generator: Adobe Illustrator 28.2.0, SVG Export Plug-In . SVG Version: 6.00 Build 0)  -->
<svg version="1.1" id="Calque_1" xmlns="http://www.w3.org/2000/svg" xmlns:xlink="http://www.w3.org/1999/xlink" x="0px" y="0px"
	 viewBox="0 0 118.82 83.1" style="enable-background:new 0 0 118.82 83.1;" xml:space="preserve">
<style type="text/css">
	.st0{fill:#FFFFFF;stroke:#240A5B;stroke-width:5;stroke-miterlimit:10;}
	.st1{fill:#F5A0D2;}
	.st2{fill:#240A5B;}
	.st3{fill:#47CCDD;}
	.st4{fill:#FFFFFF;}
	.st5{fill:none;stroke:#FFFFFF;stroke-width:14.5163;stroke-linecap:round;stroke-linejoin:round;stroke-miterlimit:10;}
	.st6{fill:#FFFFFF;stroke:#47CBDC;stroke-width:6.9424;stroke-linecap:round;stroke-linejoin:round;stroke-miterlimit:10;}
	.st7{fill:#3BB44A;}
	.st8{fill:#406043;}
	.st9{fill:#86E57F;}
	.st10{fill-rule:evenodd;clip-rule:evenodd;fill:#FFFFFF;}
	.st11{fill:none;stroke:#FFFFFF;stroke-width:8.6804;stroke-miterlimit:10;}
	.st12{fill:#F9D1E0;}
	.st13{fill:none;stroke:#FF80A6;stroke-width:3.1002;stroke-linecap:round;stroke-linejoin:round;stroke-miterlimit:10;}
</style>
<path class="st0" d="M93.89-72.77c-2.25-2.05-5.18-3.19-8.23-2.95c0.08-13.86-15.24-20.3-22.38-8.33
	c-1.41-8.97-9.39-14.66-17.34-14.66c-10.74-0.19-17.12,11.6-14.38,23.06c-13.23-1.5-18.35,17.96-8.78,26.22
	c2.25,2.05,5.18,3.19,8.23,2.95c-0.08,13.86,15.24,20.3,22.38,8.33c1.41,8.97,12.06,13.29,19.94,12.17
	c11.03-1.57,14.53-9.1,11.78-20.58C98.33-45.04,103.46-64.51,93.89-72.77L93.89-72.77z"/>
<path class="st1" d="M-41.46,30.11c0,22.01-32.63,39.82-34.02,40.55c-0.37,0.2-0.78,0.3-1.19,0.3c-0.42,0-0.83-0.1-1.19-0.3
	c-1.39-0.74-34.02-18.55-34.02-40.55c0.01-5.17,2.06-10.12,5.72-13.78c3.65-3.65,8.61-5.71,13.78-5.72c6.49,0,12.18,2.79,15.72,7.51
	c3.54-4.72,9.23-7.51,15.72-7.51c5.17,0.01,10.12,2.06,13.78,5.72S-41.46,24.94-41.46,30.11z"/>
<path class="st2" d="M-76.67,67.84c-6.22-3.62-32.7-20.13-32.7-38.42c0.01-4.15,1.66-8.14,4.59-11.07
	c2.94-2.94,6.92-4.59,11.07-4.59c6.62,0,12.19,3.53,14.51,9.2c0.21,0.5,0.55,0.93,1,1.23s0.98,0.46,1.52,0.46s1.07-0.16,1.52-0.46
	s0.8-0.73,1-1.23c2.32-5.68,7.88-9.2,14.51-9.2c4.15,0.01,8.13,1.66,11.07,4.59c2.94,2.94,4.59,6.92,4.59,11.07
	C-43.97,47.68-70.46,64.21-76.67,67.84z M-59.64,8.31c-7.03,0-13.19,3.02-17.03,8.14c-3.84-5.11-10-8.14-17.03-8.14
	c-5.6,0.01-10.97,2.23-14.92,6.19c-3.96,3.96-6.19,9.33-6.19,14.92c0,23.84,35.35,43.14,36.85,43.93c0.4,0.21,0.84,0.33,1.29,0.33
	s0.89-0.11,1.29-0.33c1.51-0.8,36.85-20.09,36.85-43.93c-0.01-5.6-2.23-10.97-6.19-14.92C-48.67,10.54-54.04,8.32-59.64,8.31z"/>
<path class="st1" d="M96.96,29.87c0,22.92-33.99,41.48-35.44,42.24c-0.38,0.21-0.81,0.31-1.24,0.31c-0.43,0-0.86-0.11-1.24-0.31
	c-1.45-0.77-35.44-19.32-35.44-42.24c0.01-5.38,2.15-10.54,5.95-14.35s8.97-5.95,14.35-5.95c6.76,0,12.68,2.91,16.37,7.82
	c3.69-4.92,9.61-7.82,16.37-7.82c5.38,0.01,10.54,2.15,14.35,5.95S96.95,24.49,96.96,29.87z"/>
<path class="st2" d="M60.36,55.95l-3.49,13.97l5.08,1.27l3.49-13.97L60.36,55.95z M54.06,51.45l6.99,6.99l3.7-3.71l-6.99-6.99
	L54.06,51.45z M64.41,35.67L53.93,47.9l3.98,3.41l10.48-12.23L64.41,35.67z M52.65,30.77l12.23,8.73l3.05-4.26l-12.23-8.73
	L52.65,30.77z M57.07,16.99l-5.24,10.48l4.69,2.34l5.24-10.48L57.07,16.99z M68.4,62.95c-1.84,1.45-3.48,2.72-5.06,3.64
	c-1.58,0.92-2.85,1.35-3.93,1.35v5.24c2.41,0,4.63-0.92,6.58-2.06c1.95-1.14,3.87-2.64,5.65-4.05L68.4,62.95z M91.72,30.87
	c0,7.68-3.14,13.59-7.64,18.66c-4.59,5.17-10.38,9.25-15.68,13.42l3.24,4.11c4.98-3.93,11.35-8.43,16.35-14.06
	c5.09-5.73,8.97-12.83,8.97-22.14H91.72z M61.3,19.98c7.19-7.47,14.75-8.15,20.38-5.57c5.8,2.65,10.04,8.95,10.04,16.46h5.24
	c0-9.47-5.36-17.69-13.1-21.23c-7.91-3.61-17.81-2.16-26.34,6.7L61.3,19.98z M47.18,67.07c1.79,1.41,3.71,2.91,5.66,4.05
	c1.95,1.14,4.17,2.06,6.58,2.06v-5.24c-1.08,0-2.35-0.42-3.93-1.35c-1.58-0.92-3.22-2.19-5.06-3.64L47.18,67.07z M21.86,30.87
	c0,9.31,3.88,16.41,8.97,22.14c5,5.63,11.37,10.13,16.35,14.06l3.24-4.11c-5.29-4.17-11.08-8.25-15.68-13.42
	c-4.5-5.07-7.64-10.99-7.64-18.66H21.86z M61.3,16.35c-8.53-8.86-18.43-10.32-26.34-6.7c-7.74,3.54-13.1,11.76-13.1,21.23h5.24
	c0-7.51,4.25-13.81,10.04-16.46c5.63-2.57,13.19-1.89,20.38,5.57L61.3,16.35z M62.9,56.59l2.54,0.64c0.22-0.89-0.04-1.84-0.69-2.49
	L62.9,56.59z M55.92,49.6l-1.99-1.7c-0.89,1.04-0.83,2.59,0.14,3.56L55.92,49.6z M66.4,37.38l1.99,1.71
	c0.48-0.56,0.7-1.29,0.61-2.02c-0.09-0.73-0.48-1.39-1.08-1.82L66.4,37.38z M54.17,28.64l-2.34-1.17c-0.58,1.15-0.23,2.55,0.82,3.3
	L54.17,28.64z M70.02,65.01l1.62,2.06l0,0L70.02,65.01z M48.8,65.01l-1.62,2.06l0,0L48.8,65.01z"/>
<path class="st3" d="M-41.11-77.77c-2.25-2.05-5.18-3.19-8.23-2.95c0.08-13.86-15.24-20.3-22.38-8.33
	c-1.41-8.97-9.39-14.66-17.34-14.66c-10.74-0.19-17.12,11.59-14.38,23.06c-13.23-1.5-18.35,17.96-8.78,26.22
	c2.25,2.05,5.18,3.19,8.23,2.95c-0.08,13.86,15.24,20.3,22.38,8.33c1.41,8.97,12.06,13.29,19.94,12.17
	c11.03-1.57,14.53-9.1,11.78-20.58C-36.67-50.04-31.54-69.51-41.11-77.77L-41.11-77.77z"/>
<path class="st4" d="M-61.23-76.53c-1.21,0.54-2.51,0.9-3.88,1.07c1.4-0.84,2.47-2.18,2.98-3.77c-1.31,0.77-2.76,1.32-4.3,1.64
	c-1.23-1.32-2.99-2.16-4.94-2.16c-3.74,0-6.77,3.05-6.77,6.81c0,0.54,0.07,1.06,0.18,1.55c-5.62-0.26-10.61-2.98-13.94-7.09
	c-0.59,1-0.92,2.16-0.92,3.43c0,2.37,1.2,4.44,3.01,5.66c-1.11-0.03-2.15-0.34-3.06-0.85v0.08c0,3.3,2.33,6.05,5.42,6.68
	c-0.56,0.15-1.17,0.24-1.78,0.24c-0.43,0-0.85-0.04-1.26-0.12c0.87,2.7,3.36,4.67,6.33,4.73c-2.31,1.82-5.24,2.91-8.39,2.91
	c-0.54,0-1.07-0.03-1.61-0.09c3.01,1.93,6.56,3.06,10.39,3.06c12.44,0,19.24-10.38,19.24-19.36c0-0.29,0-0.58-0.02-0.87
	c1.33-0.95,2.48-2.16,3.38-3.53L-61.23-76.53z"/>
<path class="st3" d="M228.89-76.77c-2.25-2.05-5.18-3.19-8.23-2.95c0.08-13.86-15.24-20.3-22.38-8.33
	c-1.41-8.97-9.39-14.66-17.34-14.66c-10.74-0.19-17.12,11.59-14.38,23.06c-13.23-1.5-18.35,17.96-8.78,26.22
	c2.25,2.05,5.18,3.19,8.23,2.95c-0.08,13.86,15.24,20.3,22.38,8.33c1.41,8.97,12.06,13.29,19.94,12.17
	c11.03-1.57,14.53-9.1,11.78-20.58C233.33-49.04,238.46-68.51,228.89-76.77L228.89-76.77z"/>
<path class="st4" d="M193.49-80.73c1.63-0.03,3.25-0.01,4.88-0.03c0.1,1.91,0.79,3.86,2.18,5.21c1.4,1.39,3.37,2.02,5.29,2.24v5.04
	c-1.8-0.06-3.6-0.44-5.24-1.21c-0.71-0.32-1.37-0.74-2.02-1.16c-0.01,3.65,0.01,7.3-0.02,10.94c-0.1,1.75-0.67,3.49-1.68,4.92
	c-1.63,2.4-4.46,3.96-7.37,4.01c-1.78,0.1-3.57-0.39-5.09-1.29c-2.52-1.49-4.29-4.21-4.55-7.14c-0.02-0.62-0.04-1.25-0.01-1.86
	c0.22-2.38,1.4-4.65,3.22-6.2c2.07-1.8,4.96-2.66,7.67-2.15c0.02,1.85-0.05,3.7-0.05,5.55c-1.23-0.4-2.68-0.29-3.77,0.46
	c-0.79,0.51-1.38,1.3-1.7,2.19c-0.26,0.64-0.19,1.34-0.17,2.01c0.3,2.05,2.27,3.78,4.36,3.59c1.4-0.01,2.73-0.83,3.45-2.01
	c0.24-0.41,0.5-0.84,0.51-1.33c0.12-2.24,0.07-4.46,0.09-6.7C193.48-70.68,193.45-75.7,193.49-80.73z"/>
<path class="st3" d="M353.63-74.52c-2.25-2.05-5.18-3.19-8.23-2.95c0.08-13.86-15.24-20.3-22.38-8.33
	c-1.41-8.97-9.39-14.66-17.34-14.66c-10.74-0.19-17.12,11.59-14.38,23.06c-13.23-1.5-18.35,17.96-8.78,26.22
	c2.25,2.05,5.18,3.19,8.23,2.95c-0.08,13.86,15.24,20.3,22.38,8.33c1.41,8.97,12.06,13.29,19.94,12.17
	c11.03-1.57,14.53-9.1,11.78-20.58C358.07-46.79,363.19-66.26,353.63-74.52L353.63-74.52z"/>
<g>
	<path class="st3" d="M222.94,1.77c-37.8,0-68.44,17.56-68.44,39.23s30.64,39.23,68.44,39.23V1.77z"/>
	<path class="st4" d="M199.86,25.97l5.13,5.13l-3.76,3.66l-5.03-5.03L199.86,25.97z M180.58,52.26h0.17l7.83-0.71
		c0.86-0.09,1.66-0.46,2.27-1.07l16.9-16.9c0.66-0.69,1.01-1.62,0.99-2.57c-0.02-0.95-0.43-1.86-1.12-2.52l-5.15-5.15
		c-0.67-0.63-1.55-0.99-2.47-1.02c-0.92-0.02-1.82,0.29-2.52,0.89l-16.9,16.9c-0.61,0.61-0.98,1.41-1.07,2.27l-0.81,7.83
		c-0.03,0.28,0.01,0.55,0.1,0.81c0.09,0.26,0.24,0.5,0.44,0.69c0.18,0.17,0.38,0.31,0.61,0.41
		C180.09,52.22,180.33,52.27,180.58,52.26z M206.87,56.02h-26.29c-0.5,0-0.98,0.2-1.33,0.55s-0.55,0.83-0.55,1.33
		c0,0.5,0.2,0.98,0.55,1.33c0.35,0.35,0.83,0.55,1.33,0.55h26.29c0.5,0,0.98-0.2,1.33-0.55c0.35-0.35,0.55-0.83,0.55-1.33
		c0-0.5-0.2-0.98-0.55-1.33S207.37,56.02,206.87,56.02z"/>
</g>
<g id="XMLID_2024_">
	<path id="XMLID_2076_" class="st4" d="M318.07-77.04c4.25,0,4.75,0.02,6.43,0.09c1.55,0.07,2.39,0.33,2.95,0.55
		c0.74,0.29,1.27,0.63,1.83,1.19c0.56,0.56,0.9,1.09,1.19,1.83c0.22,0.56,0.48,1.4,0.55,2.95c0.08,1.68,0.09,2.18,0.09,6.43
		s-0.02,4.75-0.09,6.43c-0.07,1.55-0.33,2.39-0.55,2.95c-0.29,0.74-0.63,1.27-1.19,1.83c-0.56,0.56-1.09,0.9-1.83,1.19
		c-0.56,0.22-1.4,0.48-2.95,0.55c-1.68,0.08-2.18,0.09-6.43,0.09c-4.25,0-4.75-0.02-6.43-0.09c-1.55-0.07-2.39-0.33-2.95-0.55
		c-0.74-0.29-1.27-0.63-1.83-1.19c-0.56-0.56-0.9-1.09-1.19-1.83c-0.22-0.56-0.48-1.4-0.55-2.95c-0.08-1.68-0.09-2.18-0.09-6.43
		s0.02-4.75,0.09-6.43c0.07-1.55,0.33-2.39,0.55-2.95c0.29-0.74,0.63-1.27,1.19-1.83c0.56-0.56,1.09-0.9,1.83-1.19
		c0.56-0.22,1.4-0.48,2.95-0.55C313.32-77.02,313.82-77.04,318.07-77.04 M318.07-79.9c-4.32,0-4.86,0.02-6.56,0.1
		c-1.69,0.08-2.85,0.35-3.86,0.74c-1.05,0.41-1.93,0.95-2.82,1.83c-0.88,0.88-1.43,1.77-1.83,2.82c-0.39,1.01-0.66,2.17-0.74,3.86
		c-0.08,1.7-0.1,2.24-0.1,6.56c0,4.32,0.02,4.86,0.1,6.56c0.08,1.69,0.35,2.85,0.74,3.86c0.41,1.05,0.95,1.93,1.83,2.82
		c0.88,0.88,1.77,1.43,2.82,1.83c1.01,0.39,2.17,0.66,3.86,0.74c1.7,0.08,2.24,0.1,6.56,0.1c4.32,0,4.86-0.02,6.56-0.1
		c1.69-0.08,2.85-0.35,3.86-0.74c1.05-0.41,1.93-0.95,2.82-1.83s1.43-1.77,1.83-2.82c0.39-1.01,0.66-2.17,0.74-3.86
		c0.08-1.7,0.1-2.24,0.1-6.56c0-4.32-0.02-4.86-0.1-6.56c-0.08-1.69-0.35-2.85-0.74-3.86c-0.41-1.05-0.95-1.93-1.83-2.82
		c-0.88-0.88-1.77-1.43-2.82-1.83c-1.01-0.39-2.17-0.66-3.86-0.74C322.93-79.88,322.39-79.9,318.07-79.9"/>
	<path id="XMLID_2073_" class="st4" d="M318.07-72.17c-4.51,0-8.17,3.66-8.17,8.17c0,4.51,3.66,8.17,8.17,8.17
		c4.51,0,8.17-3.66,8.17-8.17C326.23-68.51,322.58-72.17,318.07-72.17 M318.07-58.7c-2.93,0-5.3-2.37-5.3-5.3
		c0-2.93,2.37-5.3,5.3-5.3c2.93,0,5.3,2.37,5.3,5.3C323.37-61.07,321-58.7,318.07-58.7"/>
	<path id="XMLID_2025_" class="st4" d="M328.46-72.49c0,1.05-0.85,1.91-1.91,1.91c-1.05,0-1.91-0.85-1.91-1.91
		c0-1.05,0.85-1.91,1.91-1.91C327.61-74.4,328.46-73.54,328.46-72.49"/>
</g>
<g>
	<polygon class="st4" points="357.07,53.91 363.22,43.35 355.45,31.25 347.87,25.14 332.91,18.88 314.68,18.63 307.9,22.08 
		283.54,39.63 299.75,54.32 307.32,60.44 314.67,57.7 320.93,64.12 331.56,63.75 336.73,56.15 339.05,50.84 	"/>
	<g>
		<path class="st5" d="M310.65,19.08l9.99-0.8c3.55,0.01,4.2-0.09,8.25,1.04l11.84,4.4c7.62,4.12,12.2,9.41,13.97,11.6
			c0.33,0.56,5.27,9.2,1.86,14.6c-1,1.58-2.7,2.85-4.87,3.66c-3.4,1.27-6.37,1.13-7.72,0.91c-1.32-0.14-2.88-0.4-4.61-0.89
			c-1.68-0.48-3.11-1.07-4.28-1.63c-1.6-0.78-3.22-1.73-4.82-2.9c0.23,0.26,3.55,4.14,2.14,9.15c-0.97,3.46-3.82,6.12-7.39,6.89
			c-1.92,0.11-5.41,0.04-9.3-1.62c-0.1-0.04-0.2-0.09-0.3-0.14c-4.25-1.93-6.17-4.84-6.54-8.4c-0.07,1.09-0.54,1.77-1,2.55
			c0,0-0.95,1.02-2.39,1.85c-1.84,1.06-3.8,0.51-4.14,0.49c-1.77-0.22-4.36-0.75-7.19-2.14c-2.27-1.12-3.98-2.44-5.15-3.51
			c-4.66-3.09-16.13-10.6-13.73-16.43c2.1-5.1,19.96-13.25,27.2-16.37C304.01,20.75,306.88,19.79,310.65,19.08"/>
	</g>
	<g>
		<path class="st6" d="M308.39,54.62c-0.07,1.09-0.54,1.77-1,2.55c0,0-0.95,1.02-2.39,1.85c-1.84,1.06-3.8,0.51-4.14,0.49
			c-1.77-0.22-4.36-0.75-7.19-2.14c-2.27-1.12-3.98-2.44-5.15-3.51c-7.03-4.34-15.44-10.72-13.24-16.09
			c2.29-5.57,13.1-11.75,26.71-16.72c1.56-0.57,4.4-1.62,8.17-2.32"/>
		<path class="st6" d="M340.24,23.39c7.62,4.12,12.2,9.41,13.97,11.6c0.33,0.56,5.27,9.2,1.86,14.6c-1,1.58-2.7,2.85-4.87,3.66
			c-3.4,1.27-6.37,1.13-7.72,0.91c-1.32-0.14-2.88-0.4-4.61-0.89c-1.68-0.48-3.11-1.07-4.28-1.63c-1.6-0.78-3.22-1.73-4.82-2.9
			c0.23,0.26,3.55,4.14,2.14,9.15c-0.97,3.46-3.82,6.12-7.39,6.89c-1.92,0.11-5.41,0.04-9.3-1.62c-0.1-0.04-0.2-0.09-0.3-0.14"/>
		<path class="st6" d="M320.15,17.94c3.55,0.01,4.2-0.09,8.25,1.04"/>
	</g>
</g>
<g>
	<g>
		<g>
			<path class="st7" d="M-76.68,165.82c-11.29,0-22.57-0.05-33.86,0.03c-2.72,0.02-4.26-1.99-4.25-4.27
				c0.05-11.69,0.02-23.39,0.02-35.08c0-2.77,1.53-4.29,4.32-4.29c22.51,0,45.02,0.01,67.53-0.01c2.77,0,4.39,1.73,4.37,4.34
				c-0.08,11.66-0.08,23.32,0,34.99c0.02,2.61-1.75,4.35-4.37,4.33C-54.17,165.78-65.43,165.82-76.68,165.82z"/>
		</g>
		<g>
			<path class="st4" d="M-42.88,171.87c-0.03,0-0.06,0-0.09,0c-8.22-0.06-16.6-0.05-24.7-0.04c-6.04,0.01-12.08,0.01-18.13,0
				c-8.1-0.01-16.48-0.02-24.71,0.04c-2.83,0.01-5.42-1.01-7.32-2.91c-1.93-1.93-2.99-4.56-2.98-7.4
				c0.03-8.47,0.03-17.09,0.03-25.42c0-3.21,0-6.42,0-9.64c0-6.06,4.25-10.3,10.33-10.3c7.08,0,14.16,0,21.24,0
				c15.43,0,30.86,0,46.29-0.01c0,0,0.01,0,0.01,0c2.93,0,5.59,1.05,7.48,2.95c1.89,1.9,2.92,4.54,2.9,7.44
				c-0.08,11.71-0.08,23.45,0,34.91c0.02,2.88-1.03,5.51-2.94,7.43C-37.38,170.82-40.01,171.87-42.88,171.87z M-58.7,159.8
				c4.7,0,9.43,0.01,14.14,0.04c-0.06-10.4-0.06-21.02,0-31.63c-14.89,0.01-29.77,0.01-44.64,0.01c-6.52,0-13.03,0-19.55,0
				c0,2.64,0,5.27,0,7.91c0,7.77,0.01,15.78-0.02,23.71c7.69-0.05,15.46-0.04,23-0.03c6.03,0.01,12.07,0.01,18.1,0
				C-64.71,159.8-61.72,159.8-58.7,159.8z"/>
		</g>
		<g>
			<path class="st8" d="M-42.88,168.93c-0.02,0-0.04,0-0.06,0c-8.24-0.06-16.62-0.05-24.72-0.04c-6.04,0.01-12.08,0.01-18.12,0
				c-8.11-0.01-16.5-0.02-24.74,0.04c-2.02,0.01-3.89-0.71-5.23-2.05c-1.37-1.37-2.12-3.25-2.12-5.31
				c0.03-8.48,0.03-17.1,0.03-25.43c0-3.21,0-6.42,0-9.63c0-4.47,2.9-7.36,7.39-7.36c7.08,0,14.16,0,21.24,0
				c15.43,0,30.86,0,46.29-0.01c0,0,0,0,0.01,0c2.17,0,4.04,0.72,5.4,2.09c1.35,1.36,2.06,3.21,2.04,5.35
				c-0.08,11.72-0.08,23.48,0,34.95c0.01,2.08-0.73,3.98-2.08,5.33C-38.91,168.19-40.79,168.93-42.88,168.93z M-58.7,162.74
				c5.25,0,10.56,0.01,15.81,0.05c0.01,0,0.01,0,0.02,0c0.44,0,0.79-0.1,0.98-0.29c0.25-0.25,0.28-0.7,0.28-0.94
				c-0.08-11.5-0.08-23.28,0-35.03c0-0.45-0.09-0.81-0.26-0.98c-0.17-0.17-0.55-0.27-1.04-0.27c0,0,0,0,0,0
				c-15.43,0.01-30.86,0.01-46.29,0.01c-7.08,0-14.16,0-21.24,0c-1.15,0-1.25,0.2-1.25,1.22c0,3.21,0,6.42,0,9.63
				c0,8.34,0.01,16.97-0.03,25.46c0,0.39,0.11,0.73,0.31,0.93c0.17,0.17,0.45,0.26,0.83,0.26c0.01,0,0.01,0,0.02,0
				c8.27-0.06,16.67-0.05,24.79-0.04c6.04,0.01,12.07,0.01,18.11,0C-64.71,162.74-61.71,162.74-58.7,162.74z"/>
		</g>
	</g>
	<g>
		<path class="st7" d="M-76.68,166.31c-11.29,0-22.57-0.05-33.86,0.03c-2.72,0.02-4.26-1.99-4.25-4.27
			c0.05-11.69,0.02-23.39,0.02-35.08c0-2.77,1.53-4.29,4.32-4.29c22.51,0,45.02,0.01,67.53-0.01c2.77,0,4.39,1.73,4.37,4.34
			c-0.08,11.66-0.08,23.32,0,34.99c0.02,2.61-1.75,4.35-4.37,4.33C-54.17,166.26-65.43,166.31-76.68,166.31z"/>
	</g>
	<g>
		<path class="st8" d="M-76.65,164.73c-10.89,0.16-20.62-8.86-20.59-20.62c0.03-11.55,9.35-20.65,20.73-20.6
			c11.29,0.05,20.52,9.07,20.54,20.6C-55.94,155.95-65.69,164.92-76.65,164.73z"/>
	</g>
	<g>
		<path class="st9" d="M-60.16,144.03c0,9.07-7.37,16.48-16.41,16.49c-9.04,0.01-16.54-7.5-16.52-16.53
			c0.03-9.04,7.44-16.4,16.51-16.4C-67.48,127.6-60.16,134.93-60.16,144.03z"/>
	</g>
	<g>
		<g>
			<path class="st8" d="M-66.52,148.49c0,0.77-0.19,1.61-0.57,2.5c-0.38,0.9-0.98,1.78-1.79,2.64c-0.82,0.87-1.86,1.57-3.12,2.11
				c-1.27,0.54-2.74,0.81-4.43,0.81c-1.28,0-2.44-0.12-3.49-0.36c-1.05-0.24-2-0.62-2.85-1.13c-0.85-0.51-1.64-1.19-2.36-2.02
				c-0.64-0.76-1.18-1.61-1.64-2.55c-0.45-0.94-0.79-1.95-1.02-3.02c-0.23-1.07-0.34-2.2-0.34-3.41c0-1.95,0.28-3.7,0.85-5.24
				c0.57-1.54,1.38-2.86,2.44-3.96c1.06-1.1,2.3-1.93,3.72-2.5c1.42-0.57,2.94-0.86,4.55-0.86c1.96,0,3.71,0.39,5.24,1.17
				c1.53,0.78,2.71,1.75,3.52,2.9c0.82,1.15,1.22,2.24,1.22,3.26c0,0.56-0.2,1.06-0.6,1.49c-0.4,0.43-0.88,0.64-1.44,0.64
				c-0.63,0-1.1-0.15-1.41-0.45c-0.31-0.3-0.66-0.81-1.05-1.54c-0.64-1.2-1.39-2.1-2.26-2.69c-0.87-0.6-1.93-0.89-3.2-0.89
				c-2.02,0-3.62,0.77-4.82,2.3c-1.2,1.53-1.79,3.71-1.79,6.53c0,1.88,0.26,3.45,0.79,4.7c0.53,1.25,1.28,2.18,2.25,2.8
				c0.97,0.62,2.1,0.93,3.41,0.93c1.41,0,2.6-0.35,3.58-1.05c0.98-0.7,1.71-1.73,2.21-3.08c0.21-0.64,0.47-1.16,0.78-1.56
				c0.31-0.4,0.8-0.6,1.49-0.6c0.58,0,1.09,0.2,1.5,0.61C-66.73,147.38-66.52,147.89-66.52,148.49z"/>
		</g>
	</g>
	<g>
		<path class="st8" d="M-76.67,158.96c-1.11,0-2-0.9-2-2v-25.87c0-1.11,0.9-2,2-2s2,0.9,2,2v25.87
			C-74.66,158.07-75.56,158.96-76.67,158.96z"/>
	</g>
</g>
<path class="st4" d="M85.29,129.06L85.29,129.06l-2.84,5.67l0.01,0L85.29,129.06z M89.94,132.21c-1.16-1.26-2.71-2.08-4.53-3.09
	l-3.08,5.54c2.19,1.22,2.64,1.51,2.94,1.84L89.94,132.21z M92.05,135.79c-0.44-1.33-1.17-2.55-2.12-3.59l-4.66,4.3
	c0.34,0.37,0.6,0.81,0.76,1.29L92.05,135.79z M92.56,141.26c0-2.08,0.03-3.84-0.51-5.46l-6.02,1.99c0.14,0.43,0.18,0.97,0.19,3.48
	L92.56,141.26z M92.57,143.18l-0.01-1.93l-6.34,0.02l0.01,1.93L92.57,143.18z M92.08,148.64c0.53-1.62,0.49-3.38,0.49-5.46
	l-6.34,0.02c0.01,2.5-0.03,3.04-0.17,3.46L92.08,148.64z M89.95,152.26c0.96-1.04,1.69-2.28,2.12-3.61l-6.02-1.98
	c-0.16,0.48-0.42,0.93-0.76,1.3L89.95,152.26z M85.39,155.36c1.83-1.01,3.4-1.84,4.57-3.11l-4.66-4.29
	c-0.31,0.33-0.76,0.62-2.98,1.86L85.39,155.36z M84.17,156.04l1.21-0.67l-3.07-5.54l-1.21,0.67L84.17,156.04z M84.05,156.1
	L84.05,156.1l-2.83-5.67l-0.01,0L84.05,156.1z M83.8,156.24l0.37-0.21l-3.07-5.54l-0.37,0.21L83.8,156.24z M82.69,157.37
	c0.3-0.48,0.71-0.89,1.2-1.18l-3.25-5.44c-1.36,0.81-2.51,1.94-3.34,3.28L82.69,157.37z M82.5,157.69l0.22-0.37l-5.46-3.22
	l-0.22,0.37L82.5,157.69z M81.93,159.8c-0.04-0.72,0.15-1.44,0.53-2.05l-5.38-3.35c-1.06,1.71-1.58,3.7-1.48,5.71L81.93,159.8z
	 M81.96,161.38l-0.03-1.48l-6.34,0.12l0.03,1.48L81.96,161.38z M81.56,166.81c0.51-1.63,0.44-3.37,0.41-5.43l-6.34,0.11
	c0.04,2.47,0.01,3.01-0.12,3.43L81.56,166.81z M79.5,170.44c0.95-1.06,1.64-2.3,2.05-3.63l-6.05-1.9c-0.15,0.49-0.4,0.93-0.74,1.31
	L79.5,170.44z M75.05,173.6c1.78-1.04,3.33-1.89,4.46-3.16l-4.74-4.21c-0.29,0.33-0.73,0.63-2.9,1.89L75.05,173.6z M73.38,174.57
	l1.66-0.96l-3.18-5.48l-1.66,0.96L73.38,174.57z M68.39,176.89c1.68-0.35,3.19-1.27,4.99-2.32l-3.18-5.48
	c-2.18,1.27-2.67,1.51-3.11,1.6L68.39,176.89z M64.19,176.85c1.38,0.31,2.8,0.32,4.18,0.04l-1.28-6.21c-0.5,0.1-1.01,0.1-1.5-0.01
	L64.19,176.85z M59.23,174.46c1.8,1.08,3.29,2.02,4.97,2.39l1.38-6.19c-0.44-0.1-0.92-0.34-3.09-1.64L59.23,174.46z M57.96,173.7
	l1.26,0.76l3.27-5.43l-1.26-0.76L57.96,173.7z M57.66,173.52l0.31,0.18l3.25-5.44l-0.31-0.18L57.66,173.52z M56.13,173.12
	c0.56,0.02,1.11,0.17,1.62,0.45l3.07-5.55c-1.37-0.76-2.91-1.19-4.5-1.24L56.13,173.12z M55.35,173.12h0.87v-6.34h-0.87V173.12z
	 M53.64,173.68c0.54-0.35,1.17-0.54,1.81-0.56l-0.19-6.34c-1.79,0.05-3.54,0.6-5.05,1.57L53.64,173.68z M52.36,174.45l1.19-0.71
	l-3.26-5.44l-1.19,0.71L52.36,174.45z M47.41,176.83c1.68-0.37,3.17-1.32,4.95-2.39l-3.26-5.44c-2.16,1.3-2.64,1.54-3.07,1.64
	L47.41,176.83z M43.24,176.87c1.38,0.28,2.8,0.27,4.17-0.03l-1.39-6.19c-0.49,0.11-1,0.11-1.5,0.01L43.24,176.87z M38.26,174.57
	c1.8,1.04,3.31,1.95,4.99,2.3l1.28-6.21c-0.44-0.09-0.92-0.33-3.11-1.58L38.26,174.57z M36.59,173.61l1.66,0.96l3.17-5.49
	l-1.66-0.96L36.59,173.61z M32.09,170.44c1.14,1.28,2.7,2.13,4.5,3.17l3.17-5.49c-2.19-1.27-2.64-1.57-2.94-1.9L32.09,170.44z
	 M30.03,166.8c0.42,1.34,1.12,2.59,2.06,3.64l4.73-4.22c-0.34-0.38-0.59-0.82-0.74-1.31L30.03,166.8z M29.62,161.31
	c-0.04,2.09-0.1,3.86,0.41,5.5l6.05-1.89c-0.13-0.43-0.17-0.98-0.12-3.49L29.62,161.31z M29.64,159.94l-0.02,1.37l6.34,0.11
	l0.02-1.37L29.64,159.94z M29.24,157.99c0.3,0.57,0.44,1.2,0.41,1.84l6.33,0.32c0.09-1.78-0.3-3.56-1.14-5.13L29.24,157.99z
	 M29.05,157.65l0.23,0.4l5.53-3.09l-0.23-0.4L29.05,157.65z M27.7,156.19c0.56,0.33,1.01,0.81,1.31,1.39l5.6-2.96
	c-0.84-1.6-2.11-2.93-3.66-3.86L27.7,156.19z M27.38,156.01c0.06,0.03,0.11,0.06,0.15,0.08c0.05,0.03,0.07,0.04,0.1,0.06
	c0.05,0.03,0.05,0.03,0.02,0.01l3.34-5.39c-0.12-0.07-0.23-0.13-0.3-0.18c-0.09-0.05-0.13-0.07-0.23-0.13L27.38,156.01z
	 M26.18,155.35l1.2,0.67l3.08-5.54l-1.2-0.67L26.18,155.35z M21.65,152.26c1.16,1.25,2.71,2.08,4.53,3.09l3.08-5.54
	c-2.19-1.22-2.65-1.52-2.95-1.85L21.65,152.26z M19.53,148.66c0.44,1.33,1.16,2.56,2.11,3.59l4.66-4.29
	c-0.34-0.37-0.6-0.81-0.76-1.29L19.53,148.66z M19.02,143.21c0,2.09-0.03,3.84,0.51,5.46l6.02-1.99c-0.14-0.43-0.19-0.98-0.19-3.48
	L19.02,143.21z M19.01,141.32l0.01,1.89l6.34-0.02l-0.01-1.89L19.01,141.32z M19.5,135.83c-0.53,1.63-0.49,3.38-0.49,5.48l6.34-0.01
	c0-2.52,0.03-3.07,0.18-3.51L19.5,135.83z M21.63,132.2c-0.96,1.04-1.68,2.27-2.13,3.61l6.02,1.99c0.16-0.48,0.42-0.92,0.76-1.3
	L21.63,132.2z M26.2,129.1c-1.83,1.01-3.41,1.84-4.57,3.11l4.67,4.28c0.3-0.33,0.75-0.62,2.97-1.85L26.2,129.1z M27.41,128.43
	l-1.21,0.67l3.07,5.54l1.21-0.67L27.41,128.43z M27.77,128.23l-0.38,0.21l3.11,5.52l0.38-0.21L27.77,128.23z M28.9,127.09
	c-0.3,0.48-0.71,0.89-1.2,1.18l3.25,5.44c1.36-0.81,2.51-1.94,3.34-3.28L28.9,127.09z M29.08,126.78c-0.06,0.11-0.12,0.2-0.14,0.24
	c-0.03,0.05-0.02,0.03,0,0l5.31,3.47c0.08-0.12,0.14-0.23,0.18-0.29c0.04-0.08,0.07-0.12,0.12-0.2L29.08,126.78z M29.65,124.89
	c-0.01,0.65-0.19,1.28-0.54,1.83l5.39,3.34c0.95-1.53,1.46-3.28,1.49-5.08L29.65,124.89z M29.64,124.5c0,0.16,0,0.28,0.01,0.36
	c0,0.02,0,0.03,0,0.04c0,0.01,0,0.01,0,0.01c0,0,0-0.03,0-0.07l6.34,0.2c0-0.09,0-0.18,0-0.24c0-0.06,0-0.11,0-0.14
	c0-0.06,0-0.1,0-0.16H29.64z M29.62,123.13l0.02,1.43l6.34-0.1l-0.02-1.43L29.62,123.13z M30.02,117.66
	c-0.5,1.63-0.44,3.38-0.4,5.47l6.34-0.11c-0.04-2.51-0.01-3.06,0.12-3.49L30.02,117.66z M32.08,114.02
	c-0.93,1.05-1.63,2.29-2.05,3.63l6.05,1.89c0.15-0.48,0.4-0.93,0.74-1.3L32.08,114.02z M36.54,110.86c-1.8,1.04-3.33,1.89-4.47,3.17
	l4.74,4.21c0.29-0.33,0.74-0.64,2.9-1.88L36.54,110.86z M36.17,111.12l-0.02,0.01l3.96,4.95l0.02-0.01L36.17,111.12z M38.2,109.9
	l-1.64,0.95l3.18,5.48l1.64-0.95L38.2,109.9z M38.79,109.63l-0.01,0l2,6.01l0.01,0L38.79,109.63z M43.2,107.58
	c-1.68,0.35-3.19,1.27-4.99,2.32l3.18,5.48c2.18-1.27,2.67-1.5,3.11-1.6L43.2,107.58z M47.39,107.61c-1.38-0.31-2.8-0.32-4.19-0.03
	l1.3,6.2c0.5-0.1,1.01-0.1,1.5,0.01L47.39,107.61z M52.36,110c-1.8-1.08-3.29-2.02-4.97-2.4L46,113.79c0.44,0.1,0.94,0.35,3.1,1.65
	L52.36,110z M53.55,110.72l-1.2-0.72l-3.26,5.44l1.2,0.72L53.55,110.72z M53.79,110.87c0.02,0.01,0.02,0.01-0.01-0.01
	c-0.02-0.01-0.04-0.03-0.08-0.05c-0.03-0.02-0.08-0.05-0.13-0.08l-3.29,5.42c0.12,0.07,0.33,0.2,0.52,0.31L53.79,110.87z
	 M55.46,111.34c-0.57-0.02-1.12-0.17-1.62-0.45l-3.09,5.54c1.38,0.77,2.92,1.2,4.5,1.25L55.46,111.34z M55.82,111.34l-0.44,0
	l-0.05,6.34l0.44,0L55.82,111.34z M56.03,111.34c0.02,0,0.02,0-0.02,0c-0.04,0-0.1,0-0.22,0v6.34c0.18,0,0.41,0,0.63-0.01
	L56.03,111.34z M57.74,110.9c-0.49,0.27-1.03,0.42-1.61,0.44l0.2,6.34c1.57-0.05,3.11-0.47,4.49-1.24L57.74,110.9z M58.01,110.73
	c-0.14,0.09-0.2,0.12-0.31,0.18l3.14,5.5c0.08-0.04,0.22-0.12,0.45-0.26L58.01,110.73z M59.23,110.01l-1.19,0.71l3.25,5.45
	l1.19-0.71L59.23,110.01z M59.1,110.09l-0.01,0.01l3.52,5.27l0.01-0.01L59.1,110.09z M64.17,107.63c-1.67,0.37-3.16,1.31-4.94,2.38
	l3.25,5.44c2.16-1.29,2.63-1.53,3.07-1.63L64.17,107.63z M68.34,107.6c-1.38-0.29-2.8-0.27-4.17,0.03l1.39,6.19
	c0.49-0.11,1-0.11,1.5-0.01L68.34,107.6z M73.33,109.89c-1.8-1.04-3.31-1.95-4.99-2.3l-1.28,6.21c0.44,0.09,0.93,0.33,3.11,1.58
	L73.33,109.89z M74.99,110.85l-1.66-0.96l-3.17,5.49l1.66,0.96L74.99,110.85z M79.49,114.02c-1.14-1.28-2.69-2.13-4.5-3.17
	l-3.16,5.5c2.18,1.25,2.63,1.56,2.93,1.9L79.49,114.02z M81.55,117.66c-0.42-1.35-1.12-2.59-2.06-3.64l-4.73,4.22
	c0.34,0.38,0.59,0.82,0.74,1.31L81.55,117.66z M81.96,123.13c0.04-2.07,0.11-3.83-0.41-5.47l-6.05,1.9
	c0.13,0.42,0.16,0.95,0.12,3.46L81.96,123.13z M81.94,124.55l0.02-1.43l-6.34-0.09l-0.02,1.43L81.94,124.55z M82.47,126.72
	c-0.38-0.62-0.57-1.33-0.53-2.06l-6.33-0.31c-0.1,2.01,0.42,4.01,1.48,5.72L82.47,126.72z M82.68,127.08c0.01,0.01,0,0-0.02-0.04
	c-0.01-0.02-0.03-0.05-0.05-0.09c-0.02-0.04-0.05-0.08-0.07-0.13l-5.5,3.15c0.07,0.13,0.18,0.33,0.29,0.49L82.68,127.08z
	 M84.08,128.38c-0.57-0.29-1.05-0.74-1.39-1.29l-5.39,3.34c0.94,1.52,2.28,2.76,3.88,3.58L84.08,128.38z M85.41,129.12l-1.23-0.69
	l-3.09,5.54l1.23,0.69L85.41,129.12z M83.87,131.89l1.54-2.77c-0.04-0.02-0.08-0.04-0.12-0.06L83.87,131.89z M87.6,134.36
	l-2.33,2.15l0,0L87.6,134.36z M89.04,136.79l3.01-1l0-0.01L89.04,136.79z M89.39,141.26l-3.17,0v0.01L89.39,141.26z M89.4,143.19
	l3.17-0.01v0L89.4,143.19z M89.07,147.66l3.01,0.99l0,0L89.07,147.66z M87.62,150.11l-2.33-2.15l0,0L87.62,150.11z M83.85,152.59
	l1.54,2.77l0,0L83.85,152.59z M82.64,153.26l1.42,2.84c0.04-0.02,0.08-0.04,0.12-0.06L82.64,153.26z M82.63,153.27l-1.42-2.84
	c-0.04,0.02-0.08,0.04-0.12,0.06L82.63,153.27z M82.26,153.47l-1.54-2.77c-0.03,0.02-0.06,0.03-0.09,0.05L82.26,153.47z
	 M79.99,155.7l-2.69-1.67c-0.01,0.02-0.02,0.04-0.03,0.06L79.99,155.7z M79.77,156.07l2.69,1.68c0.01-0.02,0.03-0.04,0.04-0.06
	L79.77,156.07z M78.77,159.96l3.17-0.06c0-0.03,0-0.06,0-0.1L78.77,159.96z M78.79,161.44l3.17-0.06v0L78.79,161.44z M78.53,165.87
	l3.02,0.95l0-0.01L78.53,165.87z M77.14,168.34l-2.37-2.11l-0.01,0.01L77.14,168.34z M73.45,170.86l1.59,2.74l0,0L73.45,170.86z
	 M71.79,171.83l-1.59-2.74l0,0L71.79,171.83z M67.74,173.79l0.64,3.1l0.01,0L67.74,173.79z M64.89,173.76l0.7-3.09l-0.01,0
	L64.89,173.76z M60.86,171.74l-1.63,2.72l0,0L60.86,171.74z M59.6,170.98l1.63-2.72l-0.01,0L59.6,170.98z M59.29,170.8l1.63-2.72
	c-0.03-0.02-0.06-0.04-0.09-0.05L59.29,170.8z M56.23,169.95l0.1-3.17c-0.03,0-0.07,0-0.1,0V169.95z M55.35,169.95v-3.17
	c-0.03,0-0.06,0-0.1,0L55.35,169.95z M51.92,171.02l1.63,2.72c0.03-0.02,0.06-0.04,0.09-0.05L51.92,171.02z M50.73,171.73
	l-1.63-2.72l0,0L50.73,171.73z M46.72,173.74l-0.69-3.09l0,0L46.72,173.74z M43.88,173.76l0.64-3.1l0,0L43.88,173.76z M39.84,171.82
	l-1.58,2.75l0,0L39.84,171.82z M38.18,170.87l-1.59,2.74l0,0L38.18,170.87z M34.46,168.33l2.37-2.11l0,0L34.46,168.33z
	 M33.06,165.86l3.03-0.95v0L33.06,165.86z M32.79,161.36l3.17,0.06v0L32.79,161.36z M32.81,159.99l-3.17-0.16c0,0.04,0,0.07,0,0.11
	L32.81,159.99z M32.04,156.5l2.8-1.48c-0.01-0.02-0.02-0.04-0.03-0.06L32.04,156.5z M31.82,156.1l-2.8,1.48
	c0.01,0.02,0.02,0.04,0.04,0.06L31.82,156.1z M29.33,153.47l-1.67,2.69c0.01,0.01,0.03,0.02,0.04,0.03L29.33,153.47z M28.92,153.25
	l1.54-2.77l0,0L28.92,153.25z M27.72,152.58l-1.54,2.77l0,0L27.72,152.58z M23.98,150.11l-2.33,2.15l0,0L23.98,150.11z
	 M22.54,147.67l3.01-1l0,0L22.54,147.67z M22.19,143.2l3.17,0v-0.01L22.19,143.2z M22.18,141.31l-3.17,0v0.01L22.18,141.31z
	 M22.52,136.81l-3.01-0.99l0,0.01L22.52,136.81z M23.96,134.36l2.33,2.15l0.01-0.01L23.96,134.36z M27.73,131.87l1.53,2.77l0,0
	L27.73,131.87z M28.94,131.2l1.54,2.77l0.02-0.01L28.94,131.2z M29.32,130.99l1.55,2.76c0.02-0.01,0.05-0.03,0.07-0.04L29.32,130.99
	z M31.59,128.76l-2.65-1.73c-0.01,0.02-0.03,0.04-0.04,0.07L31.59,128.76z M31.81,128.39l-2.69-1.67c-0.01,0.02-0.03,0.04-0.04,0.06
	L31.81,128.39z M32.82,124.93l-3.17-0.1c0,0.02,0,0.04,0,0.06L32.82,124.93z M32.81,124.5h3.17c0-0.02,0-0.03,0-0.05L32.81,124.5z
	 M32.79,123.08l3.17-0.05v0L32.79,123.08z M33.05,118.6l-3.03-0.94l0,0.01L33.05,118.6z M34.45,116.13l2.37,2.11l0,0L34.45,116.13z
	 M38.13,113.6l1.59,2.74c0.14-0.08,0.27-0.17,0.39-0.27L38.13,113.6z M38.15,113.59l-1.59-2.74c-0.14,0.08-0.27,0.17-0.39,0.27
	L38.15,113.59z M39.79,112.64l-1-3.01c-0.2,0.07-0.4,0.16-0.59,0.27L39.79,112.64z M39.8,112.64l1,3.01c0.2-0.07,0.4-0.16,0.59-0.27
	L39.8,112.64z M43.85,110.68l0.65,3.1l0,0L43.85,110.68z M46.69,110.7l0.7-3.09l0,0L46.69,110.7z M50.72,112.72l-1.63,2.72l0,0
	L50.72,112.72z M51.92,113.44l1.64-2.71l-0.02-0.01L51.92,113.44z M52.3,113.66l1.54-2.77c-0.02-0.01-0.03-0.02-0.05-0.03
	L52.3,113.66z M55.36,114.51l-0.1,3.17c0.03,0,0.05,0,0.08,0L55.36,114.51z M55.79,114.51l-0.02,3.17h0.02V114.51z M56.23,114.51
	l-0.1-3.17c-0.03,0-0.07,0-0.1,0L56.23,114.51z M59.28,113.67l1.54,2.77c0.01-0.01,0.02-0.01,0.03-0.02L59.28,113.67z M59.66,113.44
	l-1.62-2.72l-0.02,0.01L59.66,113.44z M60.85,112.73l1.62,2.72c0.05-0.03,0.09-0.06,0.14-0.09L60.85,112.73z M60.86,112.73
	l-1.63-2.72c-0.04,0.03-0.09,0.05-0.13,0.08L60.86,112.73z M64.86,110.72l0.69,3.09l0,0L64.86,110.72z M67.7,110.7l-0.64,3.1l0,0
	L67.7,110.7z M71.75,112.64l1.58-2.75l0,0L71.75,112.64z M73.41,113.6l-1.58,2.75l0,0L73.41,113.6z M77.13,116.13l-2.37,2.11l0,0
	L77.13,116.13z M78.53,118.61l-3.03,0.94l0,0.01L78.53,118.61z M78.79,123.07l-3.17-0.06l0,0.01L78.79,123.07z M78.77,124.5
	l3.17,0.16c0-0.04,0-0.07,0-0.11L78.77,124.5z M79.78,128.39l2.75-1.57c-0.02-0.03-0.04-0.07-0.06-0.1L79.78,128.39z M80,128.77
	l2.69-1.67l-0.01-0.02L80,128.77z M82.63,131.2l1.54-2.77c-0.03-0.02-0.06-0.03-0.09-0.05L82.63,131.2z M83.86,131.89l-1.54,2.77
	c0.04,0.02,0.08,0.05,0.13,0.07L83.86,131.89z"/>
<path class="st4" d="M44.04,130.48c-3.12,3.12-4.87,7.34-4.87,11.75h6.34c0-2.73,1.08-5.34,3.01-7.27L44.04,130.48z M55.79,125.61
	c-4.41,0-8.63,1.75-11.75,4.87l4.48,4.48c1.93-1.93,4.54-3.01,7.27-3.01V125.61z M67.54,130.48c-3.12-3.12-7.34-4.87-11.75-4.87
	v6.34c2.73,0,5.34,1.08,7.27,3.01L67.54,130.48z M72.41,142.23c0-4.41-1.75-8.63-4.87-11.75l-4.48,4.48
	c1.93,1.93,3.01,4.54,3.01,7.27H72.41z M67.54,153.98c3.12-3.12,4.87-7.34,4.87-11.75h-6.34c0,2.73-1.08,5.34-3.01,7.27
	L67.54,153.98z M55.79,158.85c4.41,0,8.63-1.75,11.75-4.87l-4.48-4.48c-1.93,1.93-4.54,3.01-7.27,3.01V158.85z M44.04,153.98
	c3.12,3.12,7.34,4.87,11.75,4.87v-6.34c-2.73,0-5.34-1.08-7.27-3.01L44.04,153.98z M39.17,142.23c0,4.41,1.75,8.63,4.87,11.75
	l4.48-4.48c-1.93-1.93-3.01-4.54-3.01-7.27H39.17z M55.79,128.78v-3.17V128.78z M69.24,142.23h3.17H69.24z M55.79,155.68v3.17
	V155.68z M42.34,142.23h-3.17H42.34z"/>
<path class="st4" d="M200.97,140.25c5.94,0,11.41-0.78,15.46-2c2.01-0.61,3.81-1.37,5.17-2.29c1.23-0.83,2.76-2.28,2.76-4.39h-5.17
	c0-0.57,0.37-0.48-0.51,0.12c-0.75,0.51-2,1.08-3.75,1.62c-3.48,1.05-8.42,1.78-13.97,1.78V140.25z M177.12,131.57
	c0,2.17,1.64,3.61,2.88,4.42c1.39,0.91,3.24,1.66,5.3,2.27c4.16,1.22,9.73,2,15.67,2v-5.17c-5.55,0-10.61-0.73-14.22-1.79
	c-1.82-0.53-3.13-1.11-3.93-1.64c-0.96-0.63-0.54-0.72-0.54-0.1H177.12z M177.58,116.31v31.01h5.17v-31.01H177.58z M224.36,146.82
	v-30.5h-5.17v30.5H224.36z M200.74,155.5c5.95,0,11.46-0.78,15.57-2c2.04-0.61,3.86-1.36,5.23-2.28c1.23-0.82,2.82-2.26,2.82-4.41
	h-5.17c0-0.6,0.4-0.5-0.52,0.11c-0.78,0.52-2.06,1.09-3.84,1.63c-3.54,1.05-8.54,1.78-14.09,1.78V155.5z M200.97,125
	c5.92,0,11.38-0.7,15.44-1.89c2.01-0.59,3.83-1.34,5.2-2.3c1.3-0.9,2.75-2.38,2.75-4.5h-5.17c0-0.44,0.29-0.31-0.52,0.25
	c-0.73,0.51-1.96,1.07-3.71,1.58c-3.47,1.02-8.42,1.68-13.99,1.68V125z M177.58,116.31c0,2.12,1.45,3.6,2.75,4.5
	c1.37,0.95,3.19,1.7,5.2,2.3c4.06,1.19,9.52,1.89,15.44,1.89v-5.17c-5.57,0-10.52-0.67-13.99-1.68c-1.75-0.51-2.98-1.08-3.71-1.58
	c-0.81-0.56-0.52-0.69-0.52-0.25H177.58z M200.97,107.63c-5.92,0-11.38,0.7-15.44,1.89c-2.01,0.59-3.83,1.34-5.2,2.3
	c-1.3,0.9-2.75,2.38-2.75,4.5h5.17c0,0.44-0.29,0.31,0.52-0.25c0.73-0.51,1.96-1.07,3.71-1.58c3.47-1.02,8.42-1.68,13.99-1.68
	V107.63z M224.36,116.31c0-2.12-1.45-3.6-2.75-4.5c-1.37-0.95-3.19-1.7-5.2-2.29c-4.06-1.19-9.52-1.89-15.44-1.89v5.17
	c5.57,0,10.52,0.66,13.99,1.68c1.75,0.51,2.98,1.08,3.71,1.58c0.81,0.56,0.52,0.69,0.52,0.25H224.36z M153.07,140.72
	c0,1.18,0.52,2.13,1.1,2.82c0.57,0.68,1.31,1.22,2.06,1.66c1.51,0.89,3.52,1.63,5.81,2.23c4.61,1.21,10.85,1.98,17.66,1.98v-5.17
	c-6.47,0-12.25-0.74-16.35-1.81c-2.07-0.54-3.57-1.13-4.5-1.68c-0.46-0.27-0.67-0.47-0.74-0.55c-0.06-0.07,0.12,0.12,0.12,0.52
	H153.07z M153.07,125.47v15.25h5.17v-15.25H153.07z M153.07,125.47c0,2.3,1.78,3.77,3.14,4.59c1.53,0.91,3.56,1.65,5.85,2.23
	c4.61,1.17,10.85,1.87,17.64,1.87v-5.17c-6.49,0-12.28-0.67-16.37-1.71c-2.06-0.52-3.55-1.11-4.46-1.65
	c-1.07-0.64-0.64-0.78-0.64-0.16H153.07z M179.7,116.78c-6.79,0-13.02,0.7-17.64,1.87c-2.29,0.58-4.32,1.31-5.85,2.23
	c-1.36,0.82-3.14,2.29-3.14,4.59h5.17c0,0.62-0.44,0.48,0.64-0.16c0.91-0.54,2.4-1.13,4.46-1.65c4.09-1.04,9.88-1.71,16.37-1.71
	V116.78z M203.32,167.98v-15.06h-5.17v15.06H203.32z M179.7,176.86c5.99,0,11.51-0.72,15.62-1.95c2.04-0.61,3.87-1.39,5.26-2.37
	c1.32-0.93,2.75-2.43,2.75-4.56h-5.17c0-0.39,0.25-0.23-0.56,0.34c-0.74,0.53-1.99,1.11-3.76,1.63c-3.51,1.05-8.51,1.74-14.14,1.74
	V176.86z M156.08,167.98c0,2.12,1.43,3.63,2.74,4.56c1.39,0.98,3.22,1.76,5.26,2.37c4.11,1.23,9.63,1.95,15.62,1.95v-5.17
	c-5.63,0-10.63-0.69-14.14-1.73c-1.77-0.53-3.01-1.11-3.76-1.63c-0.81-0.57-0.56-0.73-0.56-0.34H156.08z M156.08,152.92v15.06h5.17
	v-15.06H156.08z M179.7,161.6c5.98,0,11.5-0.7,15.6-1.89c2.03-0.59,3.87-1.34,5.25-2.29c1.3-0.89,2.78-2.37,2.78-4.51h-5.17
	c0-0.45,0.3-0.32-0.53,0.24c-0.75,0.51-1.99,1.07-3.77,1.59c-3.51,1.02-8.52,1.68-14.16,1.68V161.6z M156.08,152.92
	c0,2.14,1.47,3.61,2.78,4.51c1.38,0.95,3.22,1.7,5.25,2.29c4.1,1.19,9.61,1.89,15.6,1.89v-5.17c-5.64,0-10.64-0.67-14.16-1.68
	c-1.77-0.51-3.02-1.08-3.77-1.59c-0.83-0.57-0.53-0.69-0.53-0.24H156.08z M179.7,144.24c-5.98,0-11.5,0.7-15.6,1.89
	c-2.03,0.59-3.87,1.34-5.25,2.29c-1.3,0.89-2.78,2.37-2.78,4.51h5.17c0,0.45-0.3,0.32,0.53-0.24c0.75-0.51,1.99-1.07,3.77-1.59
	c3.51-1.02,8.52-1.68,14.16-1.68V144.24z M203.32,152.92c0-2.14-1.47-3.61-2.78-4.51c-1.38-0.95-3.22-1.7-5.25-2.29
	c-4.1-1.19-9.61-1.89-15.6-1.89v5.17c5.64,0,10.64,0.67,14.16,1.68c1.77,0.51,3.02,1.08,3.77,1.59c0.83,0.57,0.53,0.69,0.53,0.24
	H203.32z M179.7,131.57h2.58v-2.58h-2.58V131.57z"/>
<path class="st10" d="M336.97,112.72c-0.87-0.24-1.94-0.26-5.02-0.26h-4.05l2.08,20.67c0.1,1,0.4,1.98,0.89,2.86
	c0.49,0.88,1.15,1.66,1.95,2.28c0.8,0.62,1.72,1.07,2.7,1.33c0.98,0.26,2,0.31,3,0.16s1.96-0.5,2.82-1.03
	c0.86-0.53,1.61-1.23,2.19-2.06c0.58-0.83,0.99-1.76,1.19-2.75c0.21-0.99,0.21-2.01,0.01-3l-1.93-9.63
	c-0.61-3.01-0.84-4.05-1.24-4.85c-0.46-0.91-1.1-1.71-1.89-2.35C338.87,113.46,337.95,112.99,336.97,112.72z M309.34,131.38
	l1.9-18.92h11.77l1.89,18.81c0.11,1.08-0.01,2.16-0.35,3.19c-0.34,1.03-0.89,1.97-1.62,2.78s-1.61,1.45-2.6,1.89
	c-0.99,0.44-2.06,0.68-3.15,0.68c-1.09,0.01-2.16-0.21-3.16-0.64c-1-0.43-1.89-1.06-2.63-1.86c-0.74-0.79-1.3-1.73-1.65-2.75
	C309.39,133.54,309.25,132.46,309.34,131.38z M306.37,112.46h-4.05c-3.08,0-4.15,0.02-5.02,0.26c-0.98,0.27-1.9,0.74-2.69,1.38
	c-0.79,0.64-1.43,1.45-1.89,2.35c-0.4,0.8-0.63,1.84-1.24,4.85l-1.93,9.63c-0.21,0.99-0.21,2.01,0,3c0.2,0.99,0.61,1.93,1.19,2.76
	c0.58,0.83,1.33,1.53,2.19,2.07c0.86,0.53,1.83,0.89,2.83,1.04c1,0.15,2.03,0.09,3.01-0.16c0.98-0.26,1.9-0.71,2.7-1.34
	c0.8-0.62,1.46-1.4,1.95-2.29c0.49-0.89,0.79-1.87,0.88-2.87l0.22-2.21l0.01-0.14L306.37,112.46z M311.48,172.03
	c1.25,0.01,2.6,0.01,4.04,0.01h3.23c1.44,0,2.78,0,4.04-0.01v-8.85c0-1.55,0-2.55-0.07-3.31c-0.06-0.72-0.18-0.99-0.26-1.12
	c-0.21-0.37-0.52-0.67-0.89-0.88c-0.13-0.08-0.4-0.19-1.12-0.25c-1.11-0.07-2.21-0.09-3.32-0.07c-1.55,0-2.56,0-3.32,0.07
	c-0.73,0.06-0.99,0.18-1.13,0.25c-0.37,0.21-0.68,0.52-0.89,0.88c-0.07,0.13-0.19,0.4-0.25,1.12c-0.07,0.76-0.07,1.76-0.07,3.31
	V172.03z M337.4,144.67c1.65,0,3.27-0.32,4.79-0.96v4.99c0,6.14-0.01,10.5-0.45,13.82c-0.44,3.24-1.26,5.1-2.62,6.47
	c-1.37,1.36-3.24,2.18-6.5,2.61c-1.65,0.2-3.31,0.33-4.97,0.37v-8.88c0-1.42,0-2.64-0.09-3.64c-0.1-1.06-0.31-2.11-0.89-3.1
	c-0.64-1.1-1.56-2.02-2.66-2.65c-0.99-0.57-2.05-0.78-3.11-0.88c-1-0.09-2.23-0.09-3.65-0.09h-0.21c-1.42,0-2.65,0-3.65,0.09
	c-1.07,0.1-2.12,0.31-3.11,0.88c-1.11,0.64-2.03,1.55-2.66,2.65c-0.57,0.99-0.79,2.04-0.88,3.1c-0.09,1-0.09,2.23-0.09,3.64v8.88
	c-1.66-0.04-3.33-0.16-4.98-0.37c-3.25-0.43-5.12-1.25-6.49-2.61c-1.37-1.36-2.19-3.23-2.63-6.47c-0.45-3.31-0.45-7.67-0.45-13.81
	v-4.99c2.58,1.09,5.46,1.26,8.16,0.5c2.7-0.76,5.05-2.42,6.67-4.7c1.17,1.6,2.71,2.91,4.49,3.8c1.78,0.9,3.74,1.36,5.73,1.36
	c1.99,0,3.96-0.46,5.73-1.36c1.78-0.9,3.31-2.2,4.49-3.8c1.14,1.6,2.64,2.9,4.39,3.8C333.49,144.2,335.43,144.67,337.4,144.67z
	 M301.96,107.63c-2.59,0-4.36,0-5.95,0.43c-1.64,0.45-3.17,1.23-4.48,2.31c-1.31,1.07-2.39,2.41-3.15,3.93
	c-0.73,1.46-1.08,3.19-1.59,5.72l-2,9.98c-0.35,1.75-0.32,3.55,0.1,5.29c0.42,1.73,1.22,3.36,2.34,4.75v8.84
	c0,5.92,0,10.61,0.49,14.28c0.51,3.77,1.58,6.83,4,9.24c2.42,2.41,5.49,3.48,9.28,3.99c3.68,0.49,8.39,0.49,14.33,0.49h3.6
	c5.94,0,10.65,0,14.33-0.49c3.79-0.51,6.86-1.58,9.28-3.99c2.42-2.41,3.49-5.47,4-9.24c0.49-3.67,0.49-8.36,0.49-14.28v-8.84
	c1.12-1.39,1.92-3.02,2.34-4.75c0.42-1.73,0.45-3.54,0.1-5.29l-2-9.98c-0.5-2.53-0.85-4.27-1.58-5.72
	c-0.76-1.51-1.84-2.85-3.15-3.93c-1.32-1.07-2.84-1.86-4.48-2.31c-1.58-0.43-3.36-0.43-5.95-0.43H301.96z"/>
<path class="st4" d="M-73.7,205.92c-1.01-0.85-2.3-1.31-3.62-1.31s-2.61,0.47-3.62,1.31l-28,23.48c-0.62,0.52-1.12,1.17-1.46,1.89
	c-0.34,0.73-0.52,1.52-0.52,2.33v34.69c0,1.47,0.59,2.88,1.64,3.91c1.05,1.04,2.47,1.62,3.96,1.62h17.73c0.74,0,1.45-0.29,1.98-0.81
	s0.82-1.22,0.82-1.96v-23.06h14.93v23.06c0,1.53,1.25,2.77,2.8,2.77h17.73c1.49,0,2.91-0.58,3.96-1.62
	c1.05-1.04,1.64-2.45,1.64-3.91v-34.69c0-0.8-0.18-1.6-0.52-2.33c-0.34-0.73-0.84-1.38-1.46-1.89L-73.7,205.92z"/>
<path class="st4" d="M87.19,218.38v24.19h7.26v-24.19H87.19z M85.22,213.62c1.26,1.26,1.97,2.98,1.97,4.76h7.26
	c0-3.71-1.47-7.27-4.1-9.9L85.22,213.62z M80.46,211.64c1.79,0,3.5,0.71,4.76,1.97l5.13-5.13c-2.62-2.62-6.18-4.1-9.9-4.1V211.64z
	 M38.99,211.64h41.47v-7.26H38.99V211.64z M34.22,213.62c1.26-1.26,2.98-1.97,4.76-1.97v-7.26c-3.71,0-7.27,1.47-9.9,4.1
	L34.22,213.62z M32.25,218.38c0-1.79,0.71-3.5,1.97-4.76l-5.13-5.13c-2.62,2.62-4.1,6.18-4.1,9.9H32.25z M32.25,259.85v-41.47h-7.26
	v41.47H32.25z M34.22,264.61c-1.26-1.26-1.97-2.98-1.97-4.76h-7.26c0,3.71,1.47,7.27,4.1,9.9L34.22,264.61z M38.99,266.59
	c-1.79,0-3.5-0.71-4.76-1.97l-5.13,5.13c2.62,2.62,6.18,4.1,9.9,4.1V266.59z M57.99,266.59H38.99v7.26h19.01V266.59z M70.09,228.92
	h0.03v-7.26h-0.03V228.92z M87.19,242.57c0,2,1.62,3.63,3.63,3.63s3.63-1.62,3.63-3.63H87.19z M90.82,218.38h3.63H90.82z
	 M38.99,208.01v-3.63V208.01z M28.62,218.38h-3.63H28.62z M28.62,259.85h-3.63H28.62z M38.99,270.22v3.63V270.22z M57.99,273.84
	c2,0,3.63-1.62,3.63-3.63s-1.62-3.63-3.63-3.63V273.84z M70.12,228.92c2,0,3.63-1.62,3.63-3.63c0-2-1.62-3.63-3.63-3.63V228.92z
	 M70.09,221.66c-2,0-3.63,1.62-3.63,3.63c0,2,1.62,3.63,3.63,3.63V221.66z"/>
<path class="st4" d="M53.7,238.22l13.82,13.82l5.13-5.13l-13.82-13.82L53.7,238.22z M48.42,238.27c1.06-1.02,1.98-1.3,2.67-1.3
	c0.68,0,1.61,0.28,2.67,1.3l5.03-5.23c-2.15-2.07-4.8-3.33-7.7-3.33c-2.9,0-5.55,1.26-7.7,3.33L48.42,238.27z M31.19,255.5
	l17.28-17.28l-5.13-5.13l-17.28,17.28L31.19,255.5z M67.52,252.05c1.42,1.42,3.71,1.42,5.13,0c1.42-1.42,1.42-3.71,0-5.13
	L67.52,252.05z M56.27,235.66l2.57-2.57c-0.02-0.02-0.03-0.03-0.05-0.05L56.27,235.66z M45.9,235.66l-2.52-2.61
	c-0.02,0.02-0.03,0.03-0.05,0.05L45.9,235.66z M26.06,250.37c-1.42,1.42-1.42,3.71,0,5.13c1.42,1.42,3.71,1.42,5.13,0L26.06,250.37z
	"/>
<path class="st4" d="M79.57,272.78l13.82-13.82l-5.13-5.13l-13.82,13.82L79.57,272.78z M67.52,265.87l6.91,6.91l5.13-5.13
	l-6.91-6.91L67.52,265.87z M77.89,245.14l1.73,1.73l5.13-5.13L83.02,240L77.89,245.14z M72.61,245.19c1.06-1.02,1.98-1.3,2.67-1.3
	c0.68,0,1.61,0.28,2.67,1.3l5.03-5.23c-2.15-2.07-4.8-3.33-7.7-3.33c-2.9,0-5.55,1.26-7.7,3.33L72.61,245.19z M69.2,248.59
	l3.46-3.46L67.52,240l-3.46,3.46L69.2,248.59z M93.39,258.96c1.42-1.42,1.42-3.71,0-5.13c-1.42-1.42-3.71-1.42-5.13,0L93.39,258.96z
	 M77,270.22l-2.57,2.57c1.42,1.42,3.71,1.42,5.13,0L77,270.22z M72.66,260.74c-1.42-1.42-3.71-1.42-5.13,0
	c-1.42,1.42-1.42,3.71,0,5.13L72.66,260.74z M79.62,246.86c1.42,1.42,3.71,1.42,5.13,0c1.42-1.42,1.42-3.71,0-5.13L79.62,246.86z
	 M80.46,242.57l2.57-2.57c-0.02-0.02-0.03-0.03-0.05-0.05L80.46,242.57z M70.09,242.57l-2.52-2.61c-0.02,0.02-0.03,0.03-0.05,0.05
	L70.09,242.57z M64.07,243.46c-1.42,1.42-1.42,3.71,0,5.13c1.42,1.42,3.71,1.42,5.13,0L64.07,243.46z"/>
<path class="st10" d="M191.35,254.04l-0.04,0.02v-38.89l1.39-0.84c4.18-2.51,8.87-4.02,13.73-4.42s9.74,0.31,14.27,2.09v39.37
	c-4.78-1.79-9.9-2.48-14.98-2.02C200.63,249.81,195.72,251.42,191.35,254.04 M156.74,212v39.37c4.78-1.79,9.9-2.48,14.98-2.02
	c5.08,0.46,9.99,2.07,14.37,4.69l0.04,0.02v-38.89l-1.39-0.84c-4.18-2.51-8.87-4.02-13.73-4.42
	C166.15,209.5,161.27,210.22,156.74,212z M187.34,260.84c0.41,0.25,0.89,0.38,1.38,0.38c0.49,0,0.96-0.13,1.38-0.38l3.92-2.35
	c3.8-2.28,8.07-3.65,12.48-4c4.41-0.35,8.85,0.32,12.96,1.96c3.08,1.23,6.42-1.04,6.42-4.35V211.8c0-2-1.22-3.79-3.07-4.54
	c-5.3-2.12-11.01-2.98-16.7-2.53c-5.69,0.46-11.19,2.22-16.08,5.15l-1.32,0.78l-1.32-0.79c-4.89-2.93-10.39-4.7-16.08-5.15
	c-5.69-0.46-11.4,0.41-16.7,2.53c-0.91,0.36-1.69,0.99-2.23,1.8c-0.55,0.81-0.84,1.77-0.84,2.74v40.31c0,3.31,3.34,5.57,6.42,4.34
	c4.11-1.64,8.55-2.32,12.96-1.96c4.41,0.35,8.69,1.72,12.48,4L187.34,260.84z"/>
<path class="st4" d="M179.29,264.94c-3.44-2-7.34-3.06-11.32-3.06s-7.89,1.06-11.32,3.06l-0.36,0.21c-0.29,0.17-0.55,0.4-0.76,0.67
	c-0.21,0.27-0.36,0.58-0.44,0.91c-0.09,0.33-0.11,0.67-0.06,1.01c0.05,0.34,0.16,0.66,0.33,0.96c0.17,0.29,0.4,0.55,0.67,0.76
	c0.27,0.21,0.58,0.36,0.91,0.44s0.67,0.11,1.01,0.06c0.34-0.05,0.66-0.16,0.96-0.33l0.36-0.21c2.64-1.54,5.65-2.35,8.71-2.35
	s6.07,0.81,8.71,2.35l3.76,2.19c2.51,1.46,5.37,2.24,8.27,2.24c2.91,0,5.76-0.77,8.27-2.24l3.76-2.19c2.64-1.54,5.65-2.35,8.71-2.35
	c3.06,0,6.07,0.81,8.71,2.35l0.36,0.21c0.59,0.35,1.3,0.44,1.97,0.27c0.67-0.18,1.23-0.61,1.58-1.2c0.35-0.59,0.44-1.3,0.27-1.97
	c-0.18-0.67-0.61-1.23-1.2-1.58l-0.36-0.21c-3.44-2-7.34-3.06-11.32-3.06s-7.89,1.06-11.32,3.06l-3.76,2.19
	c-1.72,1-3.67,1.53-5.66,1.53c-1.99,0-3.94-0.53-5.66-1.53L179.29,264.94z"/>
<path class="st4" d="M337.78,225.15c-0.52,0-1.03,0.04-1.53,0.11c-0.35,0.06-0.71,0.06-1.06-0.03c-0.35-0.08-0.67-0.23-0.96-0.44
	c-0.29-0.21-0.53-0.48-0.72-0.79s-0.3-0.66-0.35-1.02c-0.05-0.36-0.03-0.73,0.06-1.08c0.09-0.35,0.25-0.68,0.47-0.97
	c0.22-0.29,0.49-0.53,0.8-0.7c0.31-0.18,0.65-0.29,1.01-0.33c3.51-0.52,7.09,0.17,10.18,1.96c3.09,1.79,5.5,4.57,6.87,7.92
	c1.37,3.34,1.61,7.06,0.68,10.56c-0.93,3.5-2.96,6.58-5.79,8.77c4.16,1.9,7.69,5,10.17,8.9c2.48,3.91,3.8,8.47,3.8,13.12
	c0,0.72-0.28,1.41-0.78,1.91c-0.5,0.51-1.17,0.79-1.87,0.79s-1.38-0.29-1.87-0.79c-0.5-0.51-0.78-1.2-0.78-1.91
	c0-4.02-1.27-7.94-3.62-11.17s-5.66-5.6-9.43-6.76l-1.89-0.58v-6.04l1.45-0.75c2.15-1.11,3.86-2.93,4.87-5.16
	c1.01-2.23,1.26-4.74,0.7-7.13c-0.56-2.39-1.89-4.52-3.78-6.04C342.52,225.98,340.18,225.15,337.78,225.15z M308.51,210.73
	c-3.75,0-7.34,1.52-9.99,4.23c-2.65,2.71-4.14,6.37-4.14,10.2s1.49,7.5,4.14,10.2c2.65,2.71,6.24,4.23,9.99,4.23
	s7.34-1.52,9.99-4.23c2.65-2.71,4.14-6.37,4.14-10.2s-1.49-7.5-4.14-10.2C315.85,212.25,312.25,210.73,308.51,210.73z
	 M289.09,225.15c0-3.42,0.87-6.78,2.51-9.76c1.65-2.98,4.02-5.47,6.89-7.23c2.87-1.76,6.13-2.74,9.48-2.84s6.66,0.7,9.62,2.29
	c2.96,1.6,5.46,3.95,7.27,6.83c1.81,2.88,2.85,6.19,3.04,9.6c0.19,3.41-0.49,6.82-1.98,9.89s-3.71,5.69-6.48,7.61
	c5.96,2.23,11.12,6.23,14.84,11.49c3.71,5.26,5.8,11.53,5.99,18.01c-0.01,0.7-0.28,1.37-0.76,1.87c-0.48,0.5-1.13,0.79-1.81,0.81
	c-0.68,0.02-1.35-0.23-1.86-0.7c-0.51-0.47-0.82-1.12-0.87-1.82c-0.21-7.03-3.09-13.7-8.03-18.59c-4.94-4.9-11.55-7.63-18.43-7.63
	s-13.49,2.74-18.43,7.63c-4.94,4.9-7.82,11.56-8.03,18.59c-0.04,0.71-0.34,1.37-0.85,1.85c-0.51,0.48-1.18,0.74-1.87,0.72
	c-0.69-0.02-1.35-0.32-1.83-0.83c-0.48-0.51-0.75-1.19-0.74-1.9c0.19-6.48,2.28-12.75,5.99-18.01c3.71-5.26,8.88-9.26,14.84-11.49
	c-2.62-1.82-4.76-4.27-6.24-7.12C289.86,231.57,289.09,228.39,289.09,225.15z"/>
<path class="st2" d="M-72.53,311.05l5.13,5.13l-3.76,3.66l-5.03-5.03L-72.53,311.05z M-91.81,337.34h0.17l7.83-0.71
	c0.86-0.09,1.66-0.46,2.27-1.07l16.9-16.9c0.66-0.69,1.01-1.62,0.99-2.57c-0.02-0.95-0.43-1.86-1.12-2.52l-5.15-5.15
	c-0.67-0.63-1.55-0.99-2.47-1.02c-0.92-0.02-1.82,0.29-2.52,0.89l-16.9,16.9c-0.61,0.61-0.98,1.41-1.07,2.27l-0.81,7.83
	c-0.03,0.28,0.01,0.55,0.1,0.81s0.24,0.5,0.44,0.69c0.18,0.17,0.38,0.31,0.61,0.41C-92.3,337.29-92.06,337.34-91.81,337.34z
	 M-65.52,341.09h-26.29c-0.5,0-0.98,0.2-1.33,0.55c-0.35,0.35-0.55,0.83-0.55,1.33c0,0.5,0.2,0.98,0.55,1.33
	c0.35,0.35,0.83,0.55,1.33,0.55h26.29c0.5,0,0.98-0.2,1.33-0.55c0.35-0.35,0.55-0.83,0.55-1.33c0-0.5-0.2-0.98-0.55-1.33
	C-64.55,341.29-65.02,341.09-65.52,341.09z"/>
<path class="st11" d="M60.76,312.09c0.25,0.18,0.59,0.17,0.83-0.02c2.42-1.86,4.96-3.4,7.88-4.22c8.31-2.32,16.88,2.94,18.94,11.56
	c1.24,5.18-0.14,9.7-3.16,13.91c-3.39,4.74-7.59,8.7-11.99,12.45c-2.74,2.34-5.68,4.47-8.6,6.59c-2.31,1.68-4.73,1.61-7.09,0
	c-7.73-5.29-14.76-11.36-20.44-18.87c-2.45-3.23-4-6.83-3.72-11.01c0.61-8.92,7.45-15.51,16.23-15.14c3.16,0.13,5.97,1.35,8.6,3.02
	C59.1,310.9,59.9,311.48,60.76,312.09z"/>
<path class="st12" d="M60.76,312.09c0.25,0.18,0.59,0.17,0.83-0.02c2.42-1.86,4.96-3.4,7.88-4.22c8.31-2.32,16.88,2.94,18.94,11.56
	c1.24,5.18-0.14,9.7-3.16,13.91c-3.39,4.74-7.59,8.7-11.99,12.45c-2.74,2.34-5.68,4.47-8.6,6.59c-2.31,1.68-4.73,1.61-7.09,0
	c-7.73-5.29-14.76-11.36-20.44-18.87c-2.45-3.23-4-6.83-3.72-11.01c0.61-8.92,7.45-15.51,16.23-15.14c3.16,0.13,5.97,1.35,8.6,3.02
	C59.1,310.9,59.9,311.48,60.76,312.09z"/>
<path class="st13" d="M74.93,306.89c-1.9-0.24-3.31,0.05-5.27,0.6c-3.09,0.86-5.75,2.54-8.29,4.53c-1.02-0.71-1.95-1.4-2.92-2.01
	c-2.63-1.67-5.44-2.89-8.6-3.02c-1.44-0.06-2.29-0.04-3.6,0.25"/>
<g>
	<path class="st13" d="M77.59,341.73c3.11-2.86,5.38-5.3,7.86-8.78c3.01-4.21,4.39-8.73,3.16-13.91c-1.25-5.23-3.94-8.8-8.47-10.61"
		/>
	<path class="st13" d="M44.09,340.85c1.04,1.06,0.42,0.48,1.52,1.48"/>
	<path class="st13" d="M40.72,309.45c-4.69,2.5-6.86,7.31-7.1,12.67c-0.19,4.19,1.27,7.78,3.72,11.01c1.15,1.52,2.36,2.98,3.62,4.39
		"/>
	<path class="st13" d="M48.98,346.26c2.63,2.2,5.39,4.26,8.25,6.21c2.35,1.61,4.78,1.68,7.09,0c2.92-2.13,5.86-4.25,8.6-6.59"/>
</g>
</svg>
