<?xml version="1.0" encoding="UTF-8"?><svg id="Calque_1" xmlns="http://www.w3.org/2000/svg" viewBox="0 0 120.97 102.91"><defs><style>.cls-1{fill:#47ccdd;}.cls-1,.cls-2{stroke-width:0px;}.cls-2{fill:#fff;}</style></defs><path class="cls-1" d="M96.04,40.94c-2.25-2.05-5.18-3.19-8.23-2.95.08-13.86-15.24-20.3-22.38-8.33-1.41-8.97-9.39-14.66-17.34-14.66-10.74-.19-17.12,11.59-14.38,23.06-13.23-1.5-18.35,17.96-8.78,26.22,2.25,2.05,5.18,3.19,8.23,2.95-.08,13.86,15.24,20.3,22.38,8.33,1.41,8.97,12.06,13.29,19.94,12.17,11.03-1.57,14.53-9.1,11.78-20.58,13.23,1.5,18.35-17.97,8.78-26.22h0Z"/><path class="cls-2" d="M75.93,42.17c-1.21.54-2.51.9-3.88,1.07,1.4-.84,2.47-2.18,2.98-3.77-1.31.77-2.76,1.32-4.3,1.64-1.23-1.32-2.99-2.16-4.94-2.16-3.74,0-6.77,3.05-6.77,6.81,0,.54.07,1.06.18,1.55-5.62-.26-10.61-2.98-13.94-7.09-.59,1-.92,2.16-.92,3.43,0,2.37,1.2,4.44,3.01,5.66-1.11-.03-2.15-.34-3.06-.85v.08c0,3.3,2.33,6.05,5.42,6.68-.56.15-1.17.24-1.78.24-.43,0-.85-.04-1.26-.12.87,2.7,3.36,4.67,6.33,4.73-2.31,1.82-5.24,2.91-8.39,2.91-.54,0-1.07-.03-1.61-.09,3.01,1.93,6.56,3.06,10.39,3.06,12.44,0,19.24-10.38,19.24-19.36,0-.29,0-.58-.02-.87,1.33-.95,2.48-2.16,3.38-3.53l-.06-.03Z"/></svg>